<?xml version="1.0" encoding="UTF-8" standalone="no"?>
<!-- Created with Inkscape (http://www.inkscape.org/) -->

<svg
   width="100"
   height="100"
   viewBox="0 0 100 100"
   version="1.1"
   id="svg5434"
   inkscape:version="1.1 (c68e22c387, 2021-05-23)"
   sodipodi:docname="knight.svg"
   xmlns:inkscape="http://www.inkscape.org/namespaces/inkscape"
   xmlns:sodipodi="http://sodipodi.sourceforge.net/DTD/sodipodi-0.dtd"
   xmlns="http://www.w3.org/2000/svg"
   xmlns:svg="http://www.w3.org/2000/svg">
  <sodipodi:namedview
     id="namedview5436"
     pagecolor="#ffffff"
     bordercolor="#666666"
     borderopacity="1.0"
     inkscape:pageshadow="2"
     inkscape:pageopacity="0.0"
     inkscape:pagecheckerboard="0"
     inkscape:document-units="px"
     showgrid="false"
     units="px"
     inkscape:snap-global="false"
     inkscape:zoom="11.016724"
     inkscape:cx="59.455063"
     inkscape:cy="52.238762"
     inkscape:window-width="2560"
     inkscape:window-height="1369"
     inkscape:window-x="-8"
     inkscape:window-y="-8"
     inkscape:window-maximized="1"
     inkscape:current-layer="layer1" />
  <defs
     id="defs5431">
    <inkscape:path-effect
       effect="fillet_chamfer"
       id="path-effect6233"
       is_visible="true"
       lpeversion="1"
       satellites_param="F,0,0,1,0,1.5751289,0,1 @ F,0,0,1,0,2.5708682,0,1 @ F,0,0,1,0,0.08142854,0,1 @ F,0,0,1,0,2.8390491,0,1"
       unit="px"
       method="bezier"
       mode="F"
       radius="0"
       chamfer_steps="1"
       flexible="false"
       use_knot_distance="true"
       apply_no_radius="true"
       apply_with_radius="true"
       only_selected="false"
       hide_knots="false" />
    <inkscape:path-effect
       effect="fillet_chamfer"
       id="path-effect4886"
       is_visible="true"
       lpeversion="1"
       satellites_param="F,0,0,1,0,1.5751289,0,1 @ F,0,0,1,0,3.1791449,0,1 @ F,0,0,1,0,0.29464543,0,1 @ F,0,0,1,0,3.0348228,0,1"
       unit="px"
       method="bezier"
       mode="F"
       radius="0"
       chamfer_steps="1"
       flexible="false"
       use_knot_distance="true"
       apply_no_radius="true"
       apply_with_radius="true"
       only_selected="false"
       hide_knots="false" />
    <inkscape:path-effect
       effect="fillet_chamfer"
       id="path-effect4283"
       is_visible="true"
       lpeversion="1"
       satellites_param="F,0,0,1,0,3.3033232,0,1 @ F,0,0,1,0,4.3832697,0,1 @ F,0,0,1,0,0.76852856,0,1 @ F,0,0,1,0,3.9481675,0,1"
       unit="px"
       method="arc"
       mode="F"
       radius="0"
       chamfer_steps="1"
       flexible="false"
       use_knot_distance="true"
       apply_no_radius="true"
       apply_with_radius="true"
       only_selected="false"
       hide_knots="false" />
    <inkscape:path-effect
       effect="fillet_chamfer"
       id="path-effect21931"
       is_visible="true"
       lpeversion="1"
       satellites_param="F,1,0,1,0,0.3961911,0,1 @ F,1,0,1,0,0.80074202,0,1 @ F,1,0,1,0,0,0,1 @ F,1,0,1,0,0,0,1"
       unit="px"
       method="arc"
       mode="IF"
       radius="0"
       chamfer_steps="1"
       flexible="true"
       use_knot_distance="true"
       apply_no_radius="true"
       apply_with_radius="true"
       only_selected="true"
       hide_knots="false" />
    <inkscape:path-effect
       effect="fillet_chamfer"
       id="path-effect18163"
       is_visible="true"
       lpeversion="1"
       satellites_param="F,1,0,1,0,0,0,1 @ F,1,0,1,0,0.88016669,0,1 @ F,1,0,1,0,0,0,1 @ F,1,0,1,0,0,0,1"
       unit="px"
       method="arc"
       mode="IF"
       radius="0"
       chamfer_steps="1"
       flexible="true"
       use_knot_distance="true"
       apply_no_radius="true"
       apply_with_radius="true"
       only_selected="true"
       hide_knots="false" />
    <inkscape:path-effect
       effect="fillet_chamfer"
       id="path-effect18014"
       is_visible="true"
       lpeversion="1"
       satellites_param="F,1,0,1,0,0,0,1 @ F,1,0,1,0,0.88016669,0,1 @ F,1,0,1,0,0,0,1 @ F,1,0,1,0,0,0,1"
       unit="px"
       method="arc"
       mode="IF"
       radius="0"
       chamfer_steps="1"
       flexible="true"
       use_knot_distance="true"
       apply_no_radius="true"
       apply_with_radius="true"
       only_selected="true"
       hide_knots="false" />
    <inkscape:path-effect
       effect="fillet_chamfer"
       id="path-effect15509"
       is_visible="true"
       lpeversion="1"
       satellites_param="F,0,0,1,0,0,0,1 @ F,0,0,1,0,0,0,1 @ F,0,0,1,0,0,0,1 @ F,0,0,1,0,0,0,1"
       unit="px"
       method="auto"
       mode="F"
       radius="0"
       chamfer_steps="1"
       flexible="false"
       use_knot_distance="true"
       apply_no_radius="true"
       apply_with_radius="true"
       only_selected="false"
       hide_knots="false" />
    <inkscape:path-effect
       effect="fillet_chamfer"
       id="path-effect15200"
       is_visible="true"
       lpeversion="1"
       satellites_param="F,1,0,1,0,0.3961911,0,1 @ F,1,0,1,0,0.80074202,0,1 @ F,1,0,1,0,0,0,1 @ F,1,0,1,0,0,0,1"
       unit="px"
       method="arc"
       mode="IF"
       radius="0"
       chamfer_steps="1"
       flexible="true"
       use_knot_distance="true"
       apply_no_radius="true"
       apply_with_radius="true"
       only_selected="true"
       hide_knots="false" />
    <inkscape:path-effect
       effect="fillet_chamfer"
       id="path-effect12520"
       is_visible="true"
       lpeversion="1"
       satellites_param="F,0,0,1,0,3,0,1 @ F,0,0,1,0,3,0,1 @ F,0,0,1,0,3,0,1 @ F,0,0,1,0,3,0,1"
       unit="px"
       method="auto"
       mode="F"
       radius="3"
       chamfer_steps="1"
       flexible="false"
       use_knot_distance="true"
       apply_no_radius="true"
       apply_with_radius="true"
       only_selected="false"
       hide_knots="false" />
    <inkscape:path-effect
       effect="fillet_chamfer"
       id="path-effect11109"
       is_visible="true"
       lpeversion="1"
       satellites_param="F,0,0,1,0,5,0,1 @ IF,0,0,1,0,5,0,1"
       unit="px"
       method="auto"
       mode="F"
       radius="5"
       chamfer_steps="1"
       flexible="false"
       use_knot_distance="true"
       apply_no_radius="true"
       apply_with_radius="true"
       only_selected="false"
       hide_knots="false" />
  </defs>
  <g
     inkscape:label="Layer 1"
     inkscape:groupmode="layer"
     id="layer1">
    <path
       id="path13001"
       style="color:#000000;fill:#008080;stroke-width:0.2;-inkscape-stroke:none;fill-opacity:1"
       d="M 48.833984 5.6269531 C 47.827636 5.7159895 48.159537 8.873111 48.861328 10.253906 A 2.6155272 5.9210401 10.009521 0 0 46.414062 15.287109 A 2.6155272 5.9210401 10.009521 0 0 47.958984 21.572266 A 2.6155272 5.9210401 10.009521 0 0 51.392578 17.009766 L 52.117188 19.640625 C 52.479148 19.2643 52.896624 18.978386 53.349609 18.763672 A 5.9327743 3.4473021 86.640703 0 0 56.476562 22.333984 A 5.9327743 3.4473021 86.640703 0 0 59.513672 19.408203 C 65.229238 22.415651 70.314271 31.192797 63.003906 40.824219 C 61.571686 42.711172 58.816718 43.821844 55.712891 43.902344 C 30.458317 62.186501 33.356927 75.467684 31.835938 84.466797 L 36.019531 84.466797 C 36.263255 74.710904 35.402298 64.116169 55.984375 48.601562 C 59.549164 49.338784 61.593053 48.908035 62.960938 48.212891 C 60.540169 50.875044 58.891186 52.732325 56.658203 55.46875 C 50.734463 62.728042 55.412158 74.168052 55.404297 84.957031 L 62.001953 84.466797 C 57.507187 65.045291 56.425727 57.518805 62.986328 48.201172 C 64.196444 47.579561 64.87621 46.752485 65.595703 46.347656 C 59.224665 58.463445 61.06416 69.156276 64.876953 84.466797 L 68.677734 84.466797 C 67.724855 79.679491 66.54859 75.342651 65.71875 71.154297 C 65.366986 63.703056 70.423038 57.834896 76.621094 47.414062 C 80.518745 40.502133 90.538798 6.1524746 48.833984 5.6269531 z M 51.208984 11.001953 C 51.626422 11.029061 52.059714 11.048757 52.517578 11.035156 C 53.195336 11.015023 53.944937 11.033977 54.724609 11.076172 A 5.9327743 3.4473021 86.640703 0 0 52.980469 15.398438 C 52.531319 15.499487 52.082639 15.61851 51.634766 15.751953 A 2.6155272 5.9210401 10.009521 0 0 51.208984 11.001953 z M 58.113281 11.457031 C 67.641779 13.067253 79.899748 19.775209 75.068359 39.666016 C 72.565177 47.703036 66.101512 53.64086 64.921875 58.580078 C 64.905678 58.637261 64.894277 58.696386 64.878906 58.753906 C 65.314362 54.899657 66.553773 50.92467 69.0625 46.597656 C 78.430049 29.246536 70.47404 17.076625 59.748047 15.205078 A 5.9327743 3.4473021 86.640703 0 0 58.113281 11.457031 z M 56.128906 12.302734 C 57.973007 13.094235 58.076028 18.813194 57.367188 20.060547 C 56.477685 19.253607 55.42547 18.468694 54.484375 18.380859 C 54.708686 15.82539 54.912081 13.069643 56.128906 12.302734 z " />
    <path
       id="path19615"
       style="fill:#008080;fill-opacity:1;stroke:none;stroke-width:0.0999998;stroke-linecap:butt;stroke-linejoin:miter;stroke-miterlimit:4;stroke-dasharray:none;stroke-opacity:1"
       d="M 51.257812 16.919922 C 49.674712 16.911118 48.03369 17.45189 46.341797 18.484375 C 45.635697 18.847616 44.911681 19.091457 44.287109 20.025391 C 39.531379 21.180751 37.421082 24.059188 36.328125 27.599609 C 31.20697 35.161488 24.16576 47.399468 22.207031 48.394531 C 12.567629 55.50944 24.596517 72.363603 34.275391 58.537109 C 41.036182 52.760484 50.265521 41.852284 54.556641 41.207031 C 56.22819 40.879076 57.746285 40.238479 59.029297 39.351562 C 63.990663 35.921883 65.437829 28.805765 58.664062 21.822266 C 56.373506 18.477262 53.896317 16.934595 51.257812 16.919922 z M 52.714844 21.029297 C 54.29511 21.038608 55.548594 21.924819 56.916016 23.722656 C 63.795338 34.299822 58.316122 36.94073 51.283203 38.832031 C 47.705231 41.063793 38.488887 50.812148 32.091797 56.802734 C 26.284114 65.29697 20.808364 59.988561 21.757812 57.189453 C 24.314397 58.478154 31.236892 55.291122 25.669922 49.041016 L 39.410156 30.615234 C 47.386018 32.183274 50.167806 28.762895 49.421875 21.951172 C 50.701153 21.332936 51.766684 21.02371 52.714844 21.029297 z M 47.175781 24.230469 C 47.692199 28.175931 44.921132 29.681163 42.458984 28.626953 C 43.370183 27.012071 43.738654 25.274981 47.175781 24.230469 z M 23.509766 51.148438 A 2.1785016 2.1785016 0 0 1 25.6875 53.328125 A 2.1785016 2.1785016 0 0 1 23.509766 55.505859 A 2.1785016 2.1785016 0 0 1 21.332031 53.328125 A 2.1785016 2.1785016 0 0 1 23.509766 51.148438 z " />
    <path
       id="rect21911"
       style="fill:#008080;fill-opacity:1;stroke-width:0.375583"
       d="m 26.999936,90.799815 c -2.5484,0 -4.6,2.051601 -4.6,4.599998 0,2.5484 2.0516,4.600001 4.6,4.600001 h 46.000001 c 2.5484,0 4.599997,-2.051601 4.599997,-4.600001 0,-2.548397 -2.051597,-4.599998 -4.599997,-4.599998 z m 0.92,3.679999 h 44.159998 c 0.509683,0 0.920003,0.410319 0.920003,0.919999 0,0.509683 -0.41032,0.920002 -0.920003,0.920002 H 27.919936 c -0.50968,0 -0.92,-0.410319 -0.92,-0.920002 0,-0.50968 0.41032,-0.919999 0.92,-0.919999 z" />
    <path
       id="rect21913"
       style="fill:#008080;fill-opacity:1;stroke-width:0.306662"
       d="m 30.83267,83.439814 c -2.123667,0 -3.832734,1.641281 -3.832734,3.679999 0,2.038721 1.709067,3.680002 3.832734,3.680002 H 69.1672 c 2.123668,0 3.832737,-1.641281 3.832737,-3.680002 0,-2.038718 -1.709069,-3.679999 -3.832737,-3.679999 z m 1.503984,2.76 h 35.326564 c 0.407743,0 0.736717,0.328974 0.736717,0.736717 v 0.366563 c 0,0.407746 -0.328974,0.736721 -0.736717,0.736721 H 32.336654 c -0.407744,0 -0.736718,-0.328975 -0.736718,-0.736721 v -0.366563 c 0,-0.407743 0.328974,-0.736717 0.736718,-0.736717 z" />
  </g>
</svg>
