<?xml version="1.0" encoding="UTF-8" standalone="no"?>
<!-- Created with Inkscape (http://www.inkscape.org/) -->

<svg
   width="100"
   height="100"
   viewBox="0 0 100 100"
   version="1.1"
   id="svg5434"
   inkscape:version="1.1 (c68e22c387, 2021-05-23)"
   sodipodi:docname="knight.svg"
   xmlns:inkscape="http://www.inkscape.org/namespaces/inkscape"
   xmlns:sodipodi="http://sodipodi.sourceforge.net/DTD/sodipodi-0.dtd"
   xmlns="http://www.w3.org/2000/svg"
   xmlns:svg="http://www.w3.org/2000/svg">
  <sodipodi:namedview
     id="namedview5436"
     pagecolor="#ffffff"
     bordercolor="#666666"
     borderopacity="1.0"
     inkscape:pageshadow="2"
     inkscape:pageopacity="0.0"
     inkscape:pagecheckerboard="0"
     inkscape:document-units="px"
     showgrid="false"
     units="px"
     inkscape:snap-global="false"
     inkscape:zoom="11.016724"
     inkscape:cx="39.712351"
     inkscape:cy="53.963412"
     inkscape:window-width="2560"
     inkscape:window-height="1369"
     inkscape:window-x="-8"
     inkscape:window-y="-8"
     inkscape:window-maximized="1"
     inkscape:current-layer="layer1" />
  <defs
     id="defs5431">
    <inkscape:path-effect
       effect="fillet_chamfer"
       id="path-effect6233"
       is_visible="true"
       lpeversion="1"
       satellites_param="F,0,0,1,0,1.5751289,0,1 @ F,0,0,1,0,2.5708682,0,1 @ F,0,0,1,0,0.08142854,0,1 @ F,0,0,1,0,2.8390491,0,1"
       unit="px"
       method="bezier"
       mode="F"
       radius="0"
       chamfer_steps="1"
       flexible="false"
       use_knot_distance="true"
       apply_no_radius="true"
       apply_with_radius="true"
       only_selected="false"
       hide_knots="false" />
    <inkscape:path-effect
       effect="fillet_chamfer"
       id="path-effect4886"
       is_visible="true"
       lpeversion="1"
       satellites_param="F,0,0,1,0,1.5751289,0,1 @ F,0,0,1,0,3.1791449,0,1 @ F,0,0,1,0,0.29464543,0,1 @ F,0,0,1,0,3.0348228,0,1"
       unit="px"
       method="bezier"
       mode="F"
       radius="0"
       chamfer_steps="1"
       flexible="false"
       use_knot_distance="true"
       apply_no_radius="true"
       apply_with_radius="true"
       only_selected="false"
       hide_knots="false" />
    <inkscape:path-effect
       effect="fillet_chamfer"
       id="path-effect4283"
       is_visible="true"
       lpeversion="1"
       satellites_param="F,0,0,1,0,3.3033232,0,1 @ F,0,0,1,0,4.3832697,0,1 @ F,0,0,1,0,0.76852856,0,1 @ F,0,0,1,0,3.9481675,0,1"
       unit="px"
       method="arc"
       mode="F"
       radius="0"
       chamfer_steps="1"
       flexible="false"
       use_knot_distance="true"
       apply_no_radius="true"
       apply_with_radius="true"
       only_selected="false"
       hide_knots="false" />
    <inkscape:path-effect
       effect="fillet_chamfer"
       id="path-effect21931"
       is_visible="true"
       lpeversion="1"
       satellites_param="F,1,0,1,0,0.3961911,0,1 @ F,1,0,1,0,0.80074202,0,1 @ F,1,0,1,0,0,0,1 @ F,1,0,1,0,0,0,1"
       unit="px"
       method="arc"
       mode="IF"
       radius="0"
       chamfer_steps="1"
       flexible="true"
       use_knot_distance="true"
       apply_no_radius="true"
       apply_with_radius="true"
       only_selected="true"
       hide_knots="false" />
    <inkscape:path-effect
       effect="fillet_chamfer"
       id="path-effect18163"
       is_visible="true"
       lpeversion="1"
       satellites_param="F,1,0,1,0,0,0,1 @ F,1,0,1,0,0.88016669,0,1 @ F,1,0,1,0,0,0,1 @ F,1,0,1,0,0,0,1"
       unit="px"
       method="arc"
       mode="IF"
       radius="0"
       chamfer_steps="1"
       flexible="true"
       use_knot_distance="true"
       apply_no_radius="true"
       apply_with_radius="true"
       only_selected="true"
       hide_knots="false" />
    <inkscape:path-effect
       effect="fillet_chamfer"
       id="path-effect18014"
       is_visible="true"
       lpeversion="1"
       satellites_param="F,1,0,1,0,0,0,1 @ F,1,0,1,0,0.88016669,0,1 @ F,1,0,1,0,0,0,1 @ F,1,0,1,0,0,0,1"
       unit="px"
       method="arc"
       mode="IF"
       radius="0"
       chamfer_steps="1"
       flexible="true"
       use_knot_distance="true"
       apply_no_radius="true"
       apply_with_radius="true"
       only_selected="true"
       hide_knots="false" />
    <inkscape:path-effect
       effect="fillet_chamfer"
       id="path-effect15509"
       is_visible="true"
       lpeversion="1"
       satellites_param="F,0,0,1,0,0,0,1 @ F,0,0,1,0,0,0,1 @ F,0,0,1,0,0,0,1 @ F,0,0,1,0,0,0,1"
       unit="px"
       method="auto"
       mode="F"
       radius="0"
       chamfer_steps="1"
       flexible="false"
       use_knot_distance="true"
       apply_no_radius="true"
       apply_with_radius="true"
       only_selected="false"
       hide_knots="false" />
    <inkscape:path-effect
       effect="fillet_chamfer"
       id="path-effect15200"
       is_visible="true"
       lpeversion="1"
       satellites_param="F,1,0,1,0,0.3961911,0,1 @ F,1,0,1,0,0.80074202,0,1 @ F,1,0,1,0,0,0,1 @ F,1,0,1,0,0,0,1"
       unit="px"
       method="arc"
       mode="IF"
       radius="0"
       chamfer_steps="1"
       flexible="true"
       use_knot_distance="true"
       apply_no_radius="true"
       apply_with_radius="true"
       only_selected="true"
       hide_knots="false" />
    <inkscape:path-effect
       effect="fillet_chamfer"
       id="path-effect12520"
       is_visible="true"
       lpeversion="1"
       satellites_param="F,0,0,1,0,3,0,1 @ F,0,0,1,0,3,0,1 @ F,0,0,1,0,3,0,1 @ F,0,0,1,0,3,0,1"
       unit="px"
       method="auto"
       mode="F"
       radius="3"
       chamfer_steps="1"
       flexible="false"
       use_knot_distance="true"
       apply_no_radius="true"
       apply_with_radius="true"
       only_selected="false"
       hide_knots="false" />
    <inkscape:path-effect
       effect="fillet_chamfer"
       id="path-effect11109"
       is_visible="true"
       lpeversion="1"
       satellites_param="F,0,0,1,0,5,0,1 @ IF,0,0,1,0,5,0,1"
       unit="px"
       method="auto"
       mode="F"
       radius="5"
       chamfer_steps="1"
       flexible="false"
       use_knot_distance="true"
       apply_no_radius="true"
       apply_with_radius="true"
       only_selected="false"
       hide_knots="false" />
  </defs>
  <g
     inkscape:label="Layer 1"
     inkscape:groupmode="layer"
     id="layer1">
    <path
       id="path13001"
       style="color:#000000;fill:#aa0000;stroke-width:0.2;-inkscape-stroke:none"
       d="M 48.833984 5.6269531 C 47.527773 5.7425198 48.473617 11.040983 49.560547 10.892578 C 50.40855 10.918088 51.40795 11.068118 52.517578 11.035156 C 61.542883 10.767058 80.942768 15.481099 75.068359 39.666016 C 72.565172 47.703053 66.101514 53.640849 64.921875 58.580078 C 64.905678 58.637261 64.894277 58.696386 64.878906 58.753906 C 65.314363 54.89966 66.553768 50.924678 69.0625 46.597656 C 79.202306 27.816118 69.044322 15.10337 57.046875 14.953125 C 55.083656 14.928539 53.072675 15.241354 51.091797 15.917969 L 52.117188 19.640625 C 57.428126 14.118926 73.844525 26.541678 63.003906 40.824219 C 61.571683 42.711176 58.816724 43.821844 55.712891 43.902344 C 30.458264 62.186539 33.356934 75.467666 31.835938 84.466797 L 55.392578 84.466797 C 55.264398 73.822434 50.82389 62.618452 56.658203 55.46875 C 58.913415 52.705083 60.568679 50.843772 63.029297 48.138672 C 56.419454 57.485419 57.49707 65.001579 62.001953 84.466797 L 68.677734 84.466797 C 67.724853 79.679481 66.548592 75.342647 65.71875 71.154297 C 65.366986 63.703041 70.423025 57.834916 76.621094 47.414062 C 80.518753 40.502118 90.538885 6.1524757 48.833984 5.6269531 z " />
    <path
       id="path19615"
       style="fill:#aa0000;stroke:none;stroke-width:0.1;stroke-linecap:butt;stroke-linejoin:miter;stroke-miterlimit:4;stroke-dasharray:none;stroke-opacity:1;fill-opacity:1"
       d="M 49.673828 9.9003906 A 2.6155326 5.9210525 10.009521 0 0 46.414062 15.287109 A 2.6155326 5.9210525 10.009521 0 0 46.273438 18.517578 C 45.588993 18.862557 44.891646 19.121416 44.287109 20.025391 C 39.531369 21.180753 37.421084 24.059181 36.328125 27.599609 C 31.206959 35.161504 24.165764 47.399465 22.207031 48.394531 C 12.567609 55.509454 24.596497 72.363631 34.275391 58.537109 C 41.036196 52.760472 50.265512 41.852285 54.556641 41.207031 C 56.228194 40.879075 57.746282 40.238482 59.029297 39.351562 C 63.990673 35.921878 65.437843 28.805779 58.664062 21.822266 C 58.579811 21.699229 58.492958 21.596689 58.408203 21.478516 A 5.9327868 3.4473092 86.640703 0 0 59.876953 16.710938 A 5.9327868 3.4473092 86.640703 0 0 56.361328 10.496094 A 5.9327868 3.4473092 86.640703 0 0 52.960938 16.121094 A 5.9327868 3.4473092 86.640703 0 0 53.033203 17.183594 C 52.49961 17.032711 51.959951 16.9472 51.412109 16.931641 A 2.6155326 5.9210525 10.009521 0 0 51.564453 16.195312 A 2.6155326 5.9210525 10.009521 0 0 50.017578 9.9101562 A 2.6155326 5.9210525 10.009521 0 0 49.673828 9.9003906 z M 47.175781 24.230469 C 47.6922 28.175939 44.921137 29.681165 42.458984 28.626953 C 43.370185 27.012067 43.738647 25.274983 47.175781 24.230469 z M 23.509766 51.150391 A 2.1785061 2.1785061 0 0 1 25.6875 53.328125 A 2.1785061 2.1785061 0 0 1 23.509766 55.505859 A 2.1785061 2.1785061 0 0 1 21.332031 53.328125 A 2.1785061 2.1785061 0 0 1 23.509766 51.150391 z " />
    <rect
       style="fill:#aa0000;fill-opacity:1;stroke-width:0.306662;opacity:1"
       id="rect6469"
       width="46.000076"
       height="7.3600125"
       x="26.999964"
       y="83.43998"
       rx="3.8333397" />
    <rect
       style="fill:#aa0000;fill-opacity:1;stroke-width:0.375583;opacity:1"
       id="rect5517"
       width="55.200089"
       height="9.2000151"
       x="22.399956"
       y="90.799988"
       rx="4.6000075" />
  </g>
</svg>
